<?xml version="1.0" encoding="UTF-8" standalone="no"?>
<!-- Created with Inkscape (http://www.inkscape.org/) -->

<svg
   version="1.1"
   id="svg1"
   width="1014.8872"
   height="1459.4562"
   viewBox="0 0 1014.8872 1459.4562"
   sodipodi:docname="add.svg"
   inkscape:version="1.3.2 (1:1.3.2+202311252150+091e20ef0f)"
   xmlns:inkscape="http://www.inkscape.org/namespaces/inkscape"
   xmlns:sodipodi="http://sodipodi.sourceforge.net/DTD/sodipodi-0.dtd"
   xmlns="http://www.w3.org/2000/svg"
   xmlns:svg="http://www.w3.org/2000/svg">
  <defs
     id="defs1" />
  <sodipodi:namedview
     id="namedview1"
     pagecolor="#ffffff"
     bordercolor="#666666"
     borderopacity="1.0"
     inkscape:showpageshadow="2"
     inkscape:pageopacity="0.0"
     inkscape:pagecheckerboard="0"
     inkscape:deskcolor="#d1d1d1"
     inkscape:zoom="0.751875"
     inkscape:cx="692.26933"
     inkscape:cy="720.1995"
     inkscape:window-width="2560"
     inkscape:window-height="1403"
     inkscape:window-x="0"
     inkscape:window-y="0"
     inkscape:window-maximized="1"
     inkscape:current-layer="g1" />
  <g
     inkscape:groupmode="layer"
     inkscape:label="Image"
     id="g1"
     transform="translate(-107.69897,-79.149929)">
    <path
       style="fill:#000000"
       d="m 608.2576,1537.9648 c -4.6761,-1.169 -10.4073,-4.1303 -13.8598,-7.1613 -6.8426,-6.0073 -59.7176,-70.5095 -92.4707,-112.8049 C 356.937,1230.7666 242.7648,1043.593 178.07697,887.07929 137.11392,787.96835 114.01301,699.1943 108.44672,619.49863 c -1.46674,-21.00003 -0.67887,-65.35143 1.51884,-85.5 12.55019,-115.06023 61.50907,-219.29344 141.55764,-301.3755 83.6002,-85.72396 188.4482,-137.032806 309,-151.213536 18.1798,-2.13853 70.8337,-3.00962 91.009,-1.50563 88.2679,6.58005 171.3112,34.939546 243.79998,83.258326 131.31642,87.53133 213.82982,227.89646 226.22552,384.83634 1.3753,17.41213 1.3706,59.67785 -0.01,77 -11.3088,142.04146 -77.0672,312.36466 -197.14322,510.62777 -74.5224,123.0473 -180.91988,270.061 -275.25898,380.3361 -12.0692,14.1079 -14.3085,16.2447 -19.8632,18.9537 -6.9141,3.372 -15.0272,4.5483 -21.0261,3.0486 z M 837.5232,718.60959 V 597.22055 l 15.55008,-26.21053 c 8.5526,-14.41578 15.4151,-26.60529 15.25,-27.08778 -0.1651,-0.48249 -57.19488,-35.10623 -126.73278,-76.94165 l -126.4328,-76.0644 -23.0672,13.89018 c -12.6871,7.6396 -69.6423,41.90411 -126.5673,76.14334 -56.925,34.23924 -103.6723,62.41702 -103.8829,62.61729 -0.2106,0.20027 6.6519,12.22577 15.25,26.72332 l 15.6329,26.35919 v 121.67456 121.67452 h 222.5 222.5 z m -380.9673,-50.36096 0.033,-108.75 77.5671,-46.5 c 42.6618,-25.575 78.4188,-46.90479 79.4599,-47.39954 1.524,-0.72422 17.291,8.33764 80.9002,46.49632 l 79.0074,47.39586 v 108.75368 108.75368 h -47.5 -47.5 v -79.5 -79.5 h -63.5 -63.5 v 79.5 79.5 h -47.5 -47.5 z"
       id="path1" />
  </g>
</svg>
