<?xml version="1.0" encoding="UTF-8"?><svg id="Capa_1" xmlns="http://www.w3.org/2000/svg" viewBox="0 0 125.95 125.95"><defs><style>.cls-1{fill:#033df6;stroke-width:0px;}</style></defs><path class="cls-1" d="M117.76,36.94V8.19H8.19v109.57h109.57v-31.92c0-2.27,1.83-4.1,4.1-4.1s4.1,1.83,4.1,4.1v36.01c0,2.27-1.83,4.1-4.1,4.1H4.1c-2.27,0-4.1-1.83-4.1-4.1V4.1C0,1.83,1.83,0,4.1,0h117.76c2.27,0,4.1,1.83,4.1,4.1v32.85c0,2.27-1.83,4.1-4.1,4.1s-4.1-1.83-4.1-4.1Z"/><path class="cls-1" d="M121.86,65.86c.98-.03,1.91-.41,2.65-1.17l-2.65,2.65v-1.47Z"/><path class="cls-1" d="M125.71,61.79c0-.52-.11-1.04-.3-1.53.22.49.3,1.01.3,1.53Z"/><path class="cls-1" d="M125.71,61.79c0,.52-.11,1.06-.3,1.56-.19.49-.52.93-.9,1.34-.74.76-1.67,1.15-2.65,1.17v1.47l-21.41,21.41c-.79.79-1.83,1.2-2.89,1.2s-2.1-.41-2.89-1.2c-1.58-1.61-1.58-4.18,0-5.79l17.07-17.07H43.82c-2.27,0-4.1-1.83-4.1-4.1s1.83-4.1,4.1-4.1h67.91l-17.86-17.86c-1.58-1.58-1.58-4.18,0-5.79,1.61-1.61,4.2-1.61,5.79,0l22.2,22.2v1.47c.96.03,1.83.41,2.51,1.04l.14.14c.11.11.25.25.33.38.11.14.22.27.3.41.11.19.19.38.27.57.19.49.3,1.01.3,1.53Z"/><path class="cls-1" d="M121.86,56.25l2.51,2.51c-.68-.63-1.56-1.01-2.51-1.04v-1.47Z"/><path class="cls-1" d="M125.41,63.35c-.19.49-.49.93-.9,1.34.38-.41.71-.85.9-1.34Z"/></svg>