<?xml version="1.0" encoding="UTF-8"?><svg id="Capa_1" xmlns="http://www.w3.org/2000/svg" viewBox="0 0 125.95 104.47"><defs><style>.cls-1{fill:#033df6;stroke-width:0px;}</style></defs><path class="cls-1" d="M121.86,19.11h-26.13v-6.01c0-7.22-5.88-13.1-13.1-13.1h-39.32c-7.22,0-13.1,5.88-13.1,13.1v6.01H4.09c-2.26,0-4.09,1.83-4.09,4.09v77.18c0,2.26,1.83,4.09,4.09,4.09h117.77c2.26,0,4.09-1.83,4.09-4.09V23.2c0-2.26-1.83-4.09-4.09-4.09ZM38.4,13.1c0-2.71,2.21-4.92,4.92-4.92h39.32c2.71,0,4.92,2.21,4.92,4.92v6.01h-49.16v-6.01ZM117.77,96.29H8.18V27.29h109.59v69Z"/><path class="cls-1" d="M62.98,34.16c-15.23,0-27.63,12.39-27.63,27.63s12.39,27.63,27.63,27.63,27.63-12.4,27.63-27.63-12.39-27.63-27.63-27.63ZM62.98,81.24c-10.72,0-19.45-8.73-19.45-19.45s8.72-19.45,19.45-19.45,19.45,8.72,19.45,19.45-8.72,19.45-19.45,19.45Z"/></svg>