<?xml version="1.0" encoding="UTF-8" standalone="no"?>
<!-- Created with Inkscape (http://www.inkscape.org/) -->

<svg
   width="1060.0007"
   height="1060.0006"
   viewBox="0 0 280.45852 280.45849"
   version="1.1"
   id="svg1"
   xml:space="preserve"
   xmlns:inkscape="http://www.inkscape.org/namespaces/inkscape"
   xmlns:sodipodi="http://sodipodi.sourceforge.net/DTD/sodipodi-0.dtd"
   xmlns="http://www.w3.org/2000/svg"
   xmlns:svg="http://www.w3.org/2000/svg"><sodipodi:namedview
     id="namedview1"
     pagecolor="#ffffff"
     bordercolor="#000000"
     borderopacity="0.25"
     inkscape:showpageshadow="2"
     inkscape:pageopacity="0.0"
     inkscape:pagecheckerboard="0"
     inkscape:deskcolor="#d1d1d1"
     inkscape:document-units="mm"><inkscape:page
       x="0"
       y="0"
       width="280.45853"
       height="280.4585"
       id="page2"
       margin="0"
       bleed="0" /></sodipodi:namedview><defs
     id="defs1"><linearGradient
       id="paint0_linear_8_3919"
       x1="215.5"
       y1="0"
       x2="215.5"
       y2="135"
       gradientUnits="userSpaceOnUse"
       gradientTransform="matrix(0.12735839,0,0,0.12735839,171.05186,28.08253)"><stop
         stop-color="#4C2732"
         id="stop14" /><stop
         offset="1"
         stop-color="#502733"
         id="stop15" /></linearGradient></defs><g
     inkscape:label="Capa 1"
     inkscape:groupmode="layer"
     id="layer1"
     transform="translate(-3.4594139,-2.9750281)"><g
       style="fill:none;stroke-width:0.127358"
       id="g1"
       transform="matrix(2.0774705,0,0,2.0774705,-304.00622,2.9750281)"><circle
         cx="215.5"
         cy="67.5"
         r="67.5"
         fill="url(#paint0_linear_8_3919)"
         id="circle13"
         style="display:inline;fill:url(#paint0_linear_8_3919);stroke-width:0.127358" /><path
         d="m 215.5,44.7882 c 3.987,0 7.25,3.2682 7.25,7.2627 0,3.9945 -3.263,7.2628 -7.25,7.2628 -3.987,0 -7.25,-3.2683 -7.25,-7.2628 0,-3.9945 3.263,-7.2627 7.25,-7.2627 z m 0,36.3138 c 9.787,0 21.025,4.6845 21.75,7.2627 h -43.5 c 0.834,-2.6146 11.999,-7.2627 21.75,-7.2627 z m 0,-43.5766 c -8.011,0 -14.5,6.5002 -14.5,14.5255 0,8.0254 6.489,14.5255 14.5,14.5255 8.011,0 14.5,-6.5001 14.5,-14.5255 0,-8.0253 -6.489,-14.5255 -14.5,-14.5255 z m 0,36.3138 c -9.679,0 -29,4.8661 -29,14.5255 v 7.2628 h 58 v -7.2628 c 0,-9.6594 -19.321,-14.5255 -29,-14.5255 z"
         fill="#ffffff"
         id="path14"
         style="stroke-width:0.127358" /></g></g></svg>
