<?xml version="1.0" encoding="UTF-8"?><svg id="Capa_1" xmlns="http://www.w3.org/2000/svg" viewBox="0 0 125.95 136.84"><defs><style>.cls-1{fill:#fff;}.cls-1,.cls-2{stroke-width:0px;}.cls-2{fill:#033df6;}</style></defs><path class="cls-1" d="M97.05,9.16c12.13,7.6,21.17,19.26,24.93,32.94"/><path class="cls-2" d="M121.98,46.05c-1.73,0-3.32-1.15-3.8-2.9-3.45-12.54-11.69-23.42-23.22-30.64-1.85-1.16-2.41-3.59-1.25-5.44s3.59-2.41,5.44-1.25c13.21,8.27,22.67,20.79,26.64,35.24.58,2.1-.66,4.27-2.76,4.85-.35.1-.7.14-1.05.14Z"/><path class="cls-1" d="M28.88,9.16C16.74,16.76,7.71,28.42,3.95,42.1"/><path class="cls-2" d="M3.95,46.05c-.35,0-.7-.04-1.05-.14-2.1-.58-3.34-2.75-2.76-4.85C4.11,26.6,13.58,14.09,26.78,5.81c1.85-1.15,4.28-.6,5.44,1.25,1.16,1.85.6,4.28-1.25,5.44-11.53,7.22-19.77,18.1-23.22,30.64-.48,1.75-2.07,2.9-3.8,2.9Z"/><path class="cls-2" d="M123.08,109.06c-.99-2.91-2.24-5.44-3.44-7.89-2.83-5.75-5.5-11.17-5.5-22v-19.28c0-23.43-15.97-43.79-38.4-49.54-1.14-6.01-6.44-10.57-12.78-10.57s-11.63,4.56-12.78,10.57C27.76,16.1,11.78,36.46,11.78,59.89v19.28c0,10.86-2.67,16.28-5.49,22-1.21,2.45-2.45,4.97-3.45,7.89-.99,2.9-.52,6.13,1.26,8.62,1.79,2.51,4.7,4,7.79,4h32.43c1.83,8.76,9.55,15.16,18.69,15.16s16.86-6.4,18.69-15.16h32.34c3.09,0,6-1.5,7.79-4,1.78-2.49,2.25-5.72,1.26-8.62ZM63.01,128.95c-4.78,0-8.9-2.98-10.5-7.26h21.01c-1.6,4.29-5.72,7.26-10.5,7.26ZM115.4,113.09c-.19.26-.61.7-1.37.7H11.89c-.76,0-1.18-.44-1.37-.7-.18-.25-.45-.79-.21-1.48.83-2.43,1.92-4.63,3.06-6.95,2.96-5.99,6.31-12.79,6.31-25.49v-19.28c0-20.7,14.74-38.56,35.05-42.48,1.98-.38,3.35-2.19,3.19-4.2-.01-.17-.03-.34-.06-.43,0-2.82,2.29-5.12,5.11-5.12s5.11,2.29,5.11,5.05l-.06.47c-.17,2.01,1.2,3.83,3.19,4.22,20.31,3.91,35.05,21.78,35.05,42.48v19.28c0,12.66,3.35,19.47,6.31,25.48,1.15,2.33,2.23,4.53,3.06,6.96.24.69-.03,1.23-.21,1.48Z"/></svg>