<?xml version="1.0" encoding="UTF-8"?><svg id="Capa_1" xmlns="http://www.w3.org/2000/svg" viewBox="0 0 164.77 200"><defs><style>.cls-1{fill:#fff;}.cls-1,.cls-2{stroke-width:0px;}.cls-2{fill:#033df6;}</style></defs><path class="cls-2" d="M125.7,113.56V4.08c0-2.26-1.82-4.08-4.08-4.08H4.08C1.85,0,0,1.82,0,4.08v152.61c0,2.26,1.85,4.08,4.08,4.08h74.25c2.07,21.98,20.6,39.23,43.12,39.23,23.89,0,43.31-19.43,43.31-43.31,0-22.45-17.17-40.97-39.07-43.12ZM8.16,152.61V8.16h109.37v105.4c-20.7,1.85-37.27,18.36-39.21,39.04H8.16ZM121.45,191.84c-18.01,0-32.89-13.6-34.91-31.07-.16-1.33-.24-2.69-.24-4.08s.08-2.75.24-4.08c1.88-16.19,14.77-29.06,30.99-30.83,1.28-.16,2.58-.24,3.92-.24h.16c1.39,0,2.75.08,4.08.27,17.39,2.09,30.91,16.92,30.91,34.88,0,19.37-15.78,35.15-35.15,35.15Z"/><path class="cls-2" d="M99.06,37.74c0,2.26-1.82,4.08-4.08,4.08H30.55c-2.26,0-4.08-1.82-4.08-4.08s1.82-4.08,4.08-4.08h64.43c2.26,0,4.08,1.85,4.08,4.08Z"/><path class="cls-2" d="M99.06,96.42c0,2.26-1.82,4.08-4.08,4.08H30.55c-2.26,0-4.08-1.82-4.08-4.08s1.82-4.08,4.08-4.08h64.43c2.26,0,4.08,1.82,4.08,4.08Z"/><path class="cls-2" d="M99.06,67.09c0,2.26-1.82,4.08-4.08,4.08H30.55c-2.26,0-4.08-1.82-4.08-4.08s1.82-4.08,4.08-4.08h64.43c2.26,0,4.08,1.82,4.08,4.08Z"/><path class="cls-1" d="M112.5,156.69c-.35.14-.73.22-1.14.22s-.79-.08-1.14-.22h2.29Z"/><path class="cls-2" d="M136.63,150.1h-1.03v-6.09c0-5.85-4.19-10.8-9.9-12.41-1.25-.33-2.56-.52-3.92-.52h-.16c-1.41.03-2.8.24-4.08.63-5.55,1.69-9.58,6.56-9.58,12.3v6.09h-1.03c-1.58,0-2.88,1.06-3.26,2.5-.08.27-.14.6-.14.9v23.04c0,1.88,1.52,3.4,3.4,3.4h29.71c1.88,0,3.4-1.52,3.4-3.4v-23.04c0-1.88-1.52-3.4-3.4-3.4ZM110.33,156.9h1.03c-.41,0-.79-.08-1.14-.22h2.29c-.35.14-.73.22-1.14.22h21.87v16.24h-22.91v-16.24ZM114.76,144.01c0-1.99,1.09-3.75,2.78-4.87,1.12-.76,2.56-1.22,4.08-1.25h.16c1.44,0,2.8.38,3.92,1.03,1.88,1.12,3.1,2.97,3.1,5.09v6.09h-14.04v-6.09Z"/><path class="cls-2" d="M112.5,156.69c-.35.14-.73.22-1.14.22s-.79-.08-1.14-.22h2.29Z"/><path class="cls-1" d="M112.5,156.69c-.35.14-.73.22-1.14.22s-.79-.08-1.14-.22h2.29Z"/><path class="cls-2" d="M110.22,156.69c.35.14.73.22,1.14.22s.79-.08,1.14-.22h-2.29Z"/></svg>