<?xml version="1.0" encoding="UTF-8"?><svg id="Capa_1" xmlns="http://www.w3.org/2000/svg" viewBox="0 0 177.06 181.72"><defs><style>.cls-1{fill:#033df6;stroke-width:0px;}</style></defs><path class="cls-1" d="M107.33,147.83c0,2.19-1.79,3.95-3.95,3.95h-62.43c-2.16,0-3.95-1.77-3.95-3.95s1.79-3.95,3.95-3.95h62.43c2.16,0,3.95,1.77,3.95,3.95Z"/><path class="cls-1" d="M107.33,119.42c0,2.16-1.79,3.95-3.95,3.95h-62.43c-2.16,0-3.95-1.79-3.95-3.95s1.79-3.95,3.95-3.95h62.43c2.16,0,3.95,1.77,3.95,3.95Z"/><path class="cls-1" d="M11.39,157.5v20.26c0,2.19,1.77,3.95,3.95,3.95h113.81c2.19,0,3.95-1.77,3.95-3.95v-112.92l39.95-39.95c2.74-2.74,4.27-6.4,4.27-10.3s-1.53-7.56-4.27-10.33c-2.77-2.74-6.43-4.27-10.33-4.27s-7.56,1.53-10.3,4.27l-21.98,21.98c-.4-.16-.84-.24-1.29-.24H15.34c-2.19,0-3.95,1.77-3.95,3.95v20.29M11.39,132.65v16.94M11.39,107.83v16.92M11.39,82.98v16.94M11.39,58.16v16.92M19.29,75.07v-16.92M19.29,99.92v-16.94M19.29,124.75v-16.92M19.29,149.6v-16.94M19.29,50.25v-16.34h103.48l-24.72,24.72h-57.1c-2.16,0-3.95,1.77-3.95,3.95s1.79,3.95,3.95,3.95h49.2l-.05.05c-.16.18-.32.37-.45.55-.03.05-.05.08-.05.08-.13.18-.21.37-.32.58-.03.03-.03.08-.03.11-.05.05-.05.11-.08.16l-6.59,18.97h-41.64c-2.16,0-3.95,1.77-3.95,3.95s1.79,3.95,3.95,3.95h41c.03.08.11.16.18.24.74.76,1.77,1.16,2.79,1.16.42,0,.87-.08,1.29-.21l23.03-7.98c.05-.03.11-.03.16-.08.05,0,.08-.03.11-.03.21-.11.4-.18.58-.32.03,0,.05-.03.08-.05.18-.13.37-.29.55-.45l14.47-14.47v101.06H19.29v-16.31M100.72,82.74l-9.38,3.24,3.24-9.38,6.14,6.14ZM95.69,66.54h.05l-.03.03-.03-.03ZM133.11,53.68l-7.91,7.91-17.23,17.23-9.46-9.46,47.43-47.43,9.46,9.46-22.29,22.29ZM167.47,19.32l-6.48,6.48-9.46-9.46,6.48-6.48c2.61-2.61,6.85-2.61,9.46,0,1.26,1.26,1.95,2.95,1.95,4.74s-.69,3.45-1.95,4.72Z"/></svg>