<?xml version="1.0" encoding="UTF-8"?><svg id="Capa_1" xmlns="http://www.w3.org/2000/svg" viewBox="0 0 125.96 120.64"><defs><style>.cls-1{fill:none;}.cls-1,.cls-2{stroke-width:0px;}.cls-2{fill:#033df6;}</style></defs><path class="cls-1" d="M65.91,61.9c-.95.11-1.94.16-2.94.16s-1.96-.05-2.94-.16c.98-.05,1.96-.14,2.94-.14s1.96.08,2.94.14Z"/><path class="cls-2" d="M88.62,59.06c5.86-6.3,9.49-14.7,9.49-23.94C98.11,15.76,82.35,0,62.96,0S27.84,15.76,27.84,35.12c0,9.24,3.63,17.64,9.49,23.94C15.35,68.91,0,90.97,0,116.55c0,2.26,1.83,4.09,4.09,4.09s4.09-1.83,4.09-4.09c0-23.75,15.22-43.96,36.4-51.54,5.34,3.3,11.64,5.24,18.38,5.24s13.03-1.94,18.41-5.24c21.19,7.58,36.4,27.79,36.4,51.54,0,2.26,1.83,4.09,4.09,4.09s4.09-1.83,4.09-4.09c0-25.58-15.35-47.64-37.33-57.48ZM62.96,62.06c-.98,0-1.96-.05-2.94-.16-5.32-.57-10.2-2.7-14.13-5.94-6.03-4.96-9.87-12.46-9.87-20.83,0-14.86,12.08-26.94,26.94-26.94s26.97,12.08,26.97,26.94c0,8.37-3.87,15.87-9.87,20.83-3.95,3.25-8.81,5.37-14.15,5.94-.95.11-1.94.16-2.94.16Z"/></svg>